<?xml version="1.0" encoding="UTF-8" standalone="no"?>
<svg
   height="128"
   width="128"
   version="1.1"
   id="svg7"
   sodipodi:docname="icon.svg"
   xml:space="preserve"
   inkscape:version="1.3 (0e150ed6c4, 2023-07-21)"
   xmlns:inkscape="http://www.inkscape.org/namespaces/inkscape"
   xmlns:sodipodi="http://sodipodi.sourceforge.net/DTD/sodipodi-0.dtd"
   xmlns="http://www.w3.org/2000/svg"
   xmlns:svg="http://www.w3.org/2000/svg"><defs
     id="defs7" /><sodipodi:namedview
     id="namedview7"
     pagecolor="#505050"
     bordercolor="#eeeeee"
     borderopacity="1"
     inkscape:showpageshadow="0"
     inkscape:pageopacity="0"
     inkscape:pagecheckerboard="0"
     inkscape:deskcolor="#505050"
     inkscape:zoom="5.570207"
     inkscape:cx="67.23269"
     inkscape:cy="57.62802"
     inkscape:window-width="1920"
     inkscape:window-height="1017"
     inkscape:window-x="-8"
     inkscape:window-y="-8"
     inkscape:window-maximized="1"
     inkscape:current-layer="svg7" /><rect
     x="2"
     y="2"
     width="124"
     height="124"
     rx="14"
     fill="#363d52"
     stroke="#212532"
     stroke-width="4"
     id="rect1" /><g
     transform="matrix(0.07063437,0,0,0.07063437,47.560906,19.50737)"
     id="g7"
     style="opacity:1;stroke-width:1.4299"><g
       fill="#ffffff"
       id="g4"
       style="stroke-width:1.4299"><path
         d="m 105,673 v 33 q 407,354 814,0 v -33 z"
         id="path1"
         style="stroke-width:1.4299" /><path
         fill="#478cbf"
         d="m 105,673 152,14 q 12,1 15,14 l 4,67 132,10 8,-61 q 2,-11 15,-15 h 162 q 13,4 15,15 l 8,61 132,-10 4,-67 q 3,-13 15,-14 L 919,673 V 427 q 30,-39 56,-81 -35,-59 -83,-108 -43,20 -82,47 -40,-37 -88,-64 7,-51 8,-102 -59,-28 -123,-42 -26,43 -46,89 -49,-7 -98,0 -20,-46 -46,-89 -64,14 -123,42 1,51 8,102 -48,27 -88,64 -39,-27 -82,-47 -48,49 -83,108 26,42 56,81 z m 0,33 v 39 c 0,276 813,276 813,0 v -39 l -134,12 -5,69 q -2,10 -14,13 l -162,11 q -12,0 -16,-11 L 577,735 H 447 l -10,65 q -4,11 -16,11 L 259,800 q -12,-3 -14,-13 l -5,-69 z"
         id="path2"
         style="stroke-width:1.4299" /><path
         d="m 483,600 c 3,34 55,34 58,0 v -86 c -3,-34 -55,-34 -58,0 z"
         id="path3"
         style="stroke-width:1.4299" /><circle
         cx="725"
         cy="526"
         r="90"
         id="circle3"
         style="stroke-width:1.4299" /><circle
         cx="299"
         cy="526"
         r="90"
         id="circle4"
         style="stroke-width:1.4299" /></g><g
       fill="#414042"
       id="g6"
       style="stroke-width:1.4299"><circle
         cx="307"
         cy="532"
         r="60"
         id="circle5"
         style="stroke-width:1.4299" /><circle
         cx="717"
         cy="532"
         r="60"
         id="circle6"
         style="stroke-width:1.4299" /></g></g><path
     style="opacity:1;fill:#ffffff;stroke-width:37.7953;stroke-linecap:round;stroke-linejoin:round;stroke-dasharray:37.7953, 37.7953;paint-order:stroke fill markers;fill-opacity:1"
     d="m 53.319383,59.243759 c 0,0 -7.001535,-8.258221 -14.900703,-11.489699 -7.899168,-3.231477 -25.672295,-1.795265 -25.672295,-1.795265 0,0 -1.256686,23.338451 8.7968,26.928982 10.053487,3.59053 18.311707,6.103902 24.774663,-10e-7 6.462955,-6.103902 7.001535,-13.644017 7.001535,-13.644017 z"
     id="path7"
     sodipodi:nodetypes="cscssc" /><path
     style="opacity:1;fill:#ffffff;fill-opacity:1;stroke-width:37.7953;stroke-linecap:round;stroke-linejoin:round;stroke-dasharray:37.7953, 37.7953;paint-order:stroke fill markers"
     d="m 31.417145,82.402683 -18.670761,0.897633 4.488164,-8.617274 13.105438,4.308637 z"
     id="path9"
     sodipodi:nodetypes="ccccc" /><path
     style="opacity:1;fill:#478cbf;fill-opacity:1;stroke-width:37.7953;stroke-linecap:round;stroke-linejoin:round;stroke-dasharray:37.7953, 37.7953;paint-order:stroke fill markers"
     d="m 29.442353,78.453099 c 0,0 12.925911,6.642482 17.234548,-0.718106 4.308637,-7.360588 5.924376,-10.053486 5.924376,-10.053486 0,0 1.096742,10.213665 2.692898,11.848752 7.360588,7.540115 15.439283,8.437747 20.2865,8.7968 4.847216,0.359053 15.798335,-0.359053 15.798335,-0.359053 0,0 -14.362123,8.617274 -21.722711,8.796801 -7.360589,0.179526 -31.058092,-1.436213 -36.264362,-8.437748 -5.20627,-7.001535 -3.949584,-9.87396 -3.949584,-9.87396 z"
     id="path8"
     sodipodi:nodetypes="cscsscssc" /></svg>
