<?xml version="1.0" encoding="UTF-8" standalone="no"?>
<svg
   height="64"
   width="64"
   version="1.1"
   id="svg7"
   sodipodi:docname="player-3.svg"
   xml:space="preserve"
   inkscape:version="1.3 (0e150ed6c4, 2023-07-21)"
   xmlns:inkscape="http://www.inkscape.org/namespaces/inkscape"
   xmlns:sodipodi="http://sodipodi.sourceforge.net/DTD/sodipodi-0.dtd"
   xmlns="http://www.w3.org/2000/svg"
   xmlns:svg="http://www.w3.org/2000/svg"><defs
     id="defs7" /><sodipodi:namedview
     id="namedview7"
     pagecolor="#505050"
     bordercolor="#eeeeee"
     borderopacity="1"
     inkscape:showpageshadow="0"
     inkscape:pageopacity="0"
     inkscape:pagecheckerboard="0"
     inkscape:deskcolor="#505050"
     inkscape:zoom="9.7102676"
     inkscape:cx="32.182429"
     inkscape:cy="36.456256"
     inkscape:window-width="1920"
     inkscape:window-height="1017"
     inkscape:window-x="-8"
     inkscape:window-y="-8"
     inkscape:window-maximized="1"
     inkscape:current-layer="svg7" /><g
     transform="matrix(0.0419071,0,0,0.0419071,22.250615,5.4479085)"
     id="g7"
     style="opacity:1;stroke-width:2.4101"><g
       fill="#ffffff"
       id="g4"
       style="stroke-width:2.4101"><path
         d="m 105,673 v 33 q 407,354 814,0 v -33 z"
         id="path1"
         style="stroke-width:2.4101" /><path
         fill="#478cbf"
         d="m 105,673 152,14 q 12,1 15,14 l 4,67 132,10 8,-61 q 2,-11 15,-15 h 162 q 13,4 15,15 l 8,61 132,-10 4,-67 q 3,-13 15,-14 L 919,673 V 427 q 30,-39 56,-81 -35,-59 -83,-108 -43,20 -82,47 -40,-37 -88,-64 7,-51 8,-102 -59,-28 -123,-42 -26,43 -46,89 -49,-7 -98,0 -20,-46 -46,-89 -64,14 -123,42 1,51 8,102 -48,27 -88,64 -39,-27 -82,-47 -48,49 -83,108 26,42 56,81 z m 0,33 v 39 c 0,276 813,276 813,0 v -39 l -134,12 -5,69 q -2,10 -14,13 l -162,11 q -12,0 -16,-11 L 577,735 H 447 l -10,65 q -4,11 -16,11 L 259,800 q -12,-3 -14,-13 l -5,-69 z"
         id="path2"
         style="stroke-width:2.4101" /><path
         d="m 483,600 c 3,34 55,34 58,0 v -86 c -3,-34 -55,-34 -58,0 z"
         id="path3"
         style="stroke-width:2.4101" /><circle
         cx="725"
         cy="526"
         r="90"
         id="circle3"
         style="stroke-width:2.4101" /><circle
         cx="299"
         cy="526"
         r="90"
         id="circle4"
         style="stroke-width:2.4101" /></g><g
       fill="#414042"
       id="g6"
       style="stroke-width:2.4101"><circle
         cx="307"
         cy="532"
         r="60"
         id="circle5"
         style="stroke-width:2.4101" /><circle
         cx="717"
         cy="532"
         r="60"
         id="circle6"
         style="stroke-width:2.4101" /></g></g><path
     style="opacity:1;fill:#ffffff;fill-opacity:1;stroke-width:37.7953;stroke-linecap:round;stroke-linejoin:round;stroke-dasharray:37.7953, 37.7953;paint-order:stroke fill markers"
     d="m 25.667097,29.023353 c 0,0 -4.867501,-1.430998 -10.815321,-0.353839 -4.9824936,0.902338 -11.1968051,10.623565 -11.1968051,10.623565 0,0 -0.1372154,1.001224 6.0318561,2.435826 4.528482,1.053088 11.942527,-1.914601 13.476807,-5.378818 1.688284,-3.81194 2.503463,-7.326734 2.503463,-7.326734 z"
     id="path7"
     sodipodi:nodetypes="cscssc" /><path
     style="opacity:1;fill:#ffffff;fill-opacity:1;stroke-width:37.7953;stroke-linecap:round;stroke-linejoin:round;stroke-dasharray:37.7953, 37.7953;paint-order:stroke fill markers"
     d="M 13.084519,44.61716 4.4788404,44.428835 4.1551212,41.375917 12.548429,43.623262 Z"
     id="path9"
     sodipodi:nodetypes="ccccc" /><path
     style="opacity:1;fill:#478cbf;fill-opacity:1;stroke-width:37.7953;stroke-linecap:round;stroke-linejoin:round;stroke-dasharray:37.7953, 37.7953;paint-order:stroke fill markers"
     d="m 12.63377,43.097758 c 0,0 4.817004,-0.137662 8.989384,-3.000645 2.762265,-1.895397 3.617893,-6.067677 3.617893,-6.067677 0,0 0.650693,6.059728 1.597686,7.029818 4.367008,4.473521 9.160066,5.006083 12.035901,5.219107 2.875835,0.213025 9.373091,-0.213024 9.373091,-0.213024 0,0 -8.520992,5.112595 -12.888,5.219107 C 30.992716,51.390956 16.93308,50.432345 13.844221,46.278361 10.755361,42.124378 12.63377,43.097758 12.63377,43.097758 Z"
     id="path8"
     sodipodi:nodetypes="cscsscssc" /></svg>
