<?xml version="1.0" encoding="UTF-8" standalone="no"?>
<svg
   height="200"
   width="50"
   version="1.1"
   id="svg7"
   sodipodi:docname="pipe.svg"
   xml:space="preserve"
   inkscape:version="1.3 (0e150ed6c4, 2023-07-21)"
   xmlns:inkscape="http://www.inkscape.org/namespaces/inkscape"
   xmlns:sodipodi="http://sodipodi.sourceforge.net/DTD/sodipodi-0.dtd"
   xmlns="http://www.w3.org/2000/svg"
   xmlns:svg="http://www.w3.org/2000/svg"><defs
     id="defs7" /><sodipodi:namedview
     id="namedview7"
     pagecolor="#505050"
     bordercolor="#eeeeee"
     borderopacity="1"
     inkscape:showpageshadow="0"
     inkscape:pageopacity="0"
     inkscape:pagecheckerboard="0"
     inkscape:deskcolor="#505050"
     inkscape:zoom="3.4335614"
     inkscape:cx="67.422706"
     inkscape:cy="87.664079"
     inkscape:window-width="1920"
     inkscape:window-height="1017"
     inkscape:window-x="-8"
     inkscape:window-y="-8"
     inkscape:window-maximized="1"
     inkscape:current-layer="svg7" /><g
     transform="matrix(0.0419071,0,0,0.0419071,111.83436,11.013231)"
     id="g7"
     style="opacity:1;stroke-width:2.4101"><g
       fill="#ffffff"
       id="g4"
       style="stroke-width:2.4101"><path
         d="m 105,673 v 33 q 407,354 814,0 v -33 z"
         id="path1"
         style="stroke-width:2.4101" /><path
         fill="#478cbf"
         d="m 105,673 152,14 q 12,1 15,14 l 4,67 132,10 8,-61 q 2,-11 15,-15 h 162 q 13,4 15,15 l 8,61 132,-10 4,-67 q 3,-13 15,-14 L 919,673 V 427 q 30,-39 56,-81 -35,-59 -83,-108 -43,20 -82,47 -40,-37 -88,-64 7,-51 8,-102 -59,-28 -123,-42 -26,43 -46,89 -49,-7 -98,0 -20,-46 -46,-89 -64,14 -123,42 1,51 8,102 -48,27 -88,64 -39,-27 -82,-47 -48,49 -83,108 26,42 56,81 z m 0,33 v 39 c 0,276 813,276 813,0 v -39 l -134,12 -5,69 q -2,10 -14,13 l -162,11 q -12,0 -16,-11 L 577,735 H 447 l -10,65 q -4,11 -16,11 L 259,800 q -12,-3 -14,-13 l -5,-69 z"
         id="path2"
         style="stroke-width:2.4101" /><path
         d="m 483,600 c 3,34 55,34 58,0 v -86 c -3,-34 -55,-34 -58,0 z"
         id="path3"
         style="stroke-width:2.4101" /><circle
         cx="725"
         cy="526"
         r="90"
         id="circle3"
         style="stroke-width:2.4101" /><circle
         cx="299"
         cy="526"
         r="90"
         id="circle4"
         style="stroke-width:2.4101" /></g><g
       fill="#414042"
       id="g6"
       style="stroke-width:2.4101"><circle
         cx="307"
         cy="532"
         r="60"
         id="circle5"
         style="stroke-width:2.4101" /><circle
         cx="717"
         cy="532"
         r="60"
         id="circle6"
         style="stroke-width:2.4101" /></g></g><path
     style="opacity:1;fill:#ffffff;fill-opacity:1;stroke-width:37.7953;stroke-linecap:round;stroke-linejoin:round;stroke-dasharray:37.7953, 37.7953;paint-order:stroke fill markers"
     d="m 115.25084,34.588676 c 0,0 -4.15398,-4.89957 -8.84053,-6.816794 -4.68654,-1.917222 -15.23127,-1.065123 -15.23127,-1.065123 0,0 -0.745587,13.846612 5.219107,15.97686 5.964693,2.130247 10.864263,3.621421 14.698713,-10e-7 3.83444,-3.621421 4.15398,-8.094942 4.15398,-8.094942 z"
     id="path7"
     sodipodi:nodetypes="cscssc" /><path
     style="opacity:1;fill:#ffffff;fill-opacity:1;stroke-width:37.7953;stroke-linecap:round;stroke-linejoin:round;stroke-dasharray:37.7953, 37.7953;paint-order:stroke fill markers"
     d="m 102.25633,48.328775 -11.077291,0.532562 2.66281,-5.112595 7.775401,2.556298 z"
     id="path9"
     sodipodi:nodetypes="ccccc" /><path
     style="opacity:1;fill:#478cbf;fill-opacity:1;stroke-width:37.7953;stroke-linecap:round;stroke-linejoin:round;stroke-dasharray:37.7953, 37.7953;paint-order:stroke fill markers"
     d="m 101.08469,45.985502 c 0,0 7.66889,3.940959 10.22519,-0.426049 2.5563,-4.367008 3.51491,-5.964694 3.51491,-5.964694 0,0 0.65069,6.059728 1.59769,7.029818 4.36701,4.473521 9.16006,5.006083 12.0359,5.219107 2.87583,0.213025 9.37309,-0.213024 9.37309,-0.213024 0,0 -8.52099,5.112595 -12.888,5.219107 -4.36701,0.106512 -18.42665,-0.852099 -21.5155,-5.006083 -3.08886,-4.153983 -2.34328,-5.858182 -2.34328,-5.858182 z"
     id="path8"
     sodipodi:nodetypes="cscsscssc" /><rect
     style="fill:#478cbf;stroke-width:11.3386;stroke-linecap:round;paint-order:stroke fill markers;fill-opacity:1"
     id="rect1"
     width="50"
     height="200"
     x="0"
     y="0"
     rx="0"
     ry="0" /><rect
     style="fill:#414042;fill-opacity:1;stroke-width:11.3386;stroke-linecap:round;paint-order:stroke fill markers"
     id="rect2"
     width="40"
     height="195"
     x="5"
     y="5.0000072" /></svg>
